STARTFONT 2.1
COMMENT Copyright (C) 1990-1991 EWT Consulting
COMMENT Portions Copyright (C) 1994-1995 Cronyx Ltd.
COMMENT Changes Copyright (C) 1996-1997 by Andrey A. Chernov, Moscow, Russia.
COMMENT Modified by Serge Vakulenko, <vak@cronyx.ru>
COMMENT Changes 1999 by Serge Winitzki.
COMMENT This software may be used, modified, copied, distributed, and sold,
COMMENT in both source and binary form provided that the copyright
COMMENT and these terms are retained. Under no circumstances is the author
COMMENT responsible for the proper functioning of this software, nor does
COMMENT the author assume any responsibility for damages incurred with its use.
COMMENT $XFree86$
FONT -Cronyx-Times-Bold-I-Normal--34-240-100-100-P-124-KOI8-R
SIZE 24 96 96
FONTBOUNDINGBOX 42 34 -3 -8
STARTPROPERTIES 21
DEFAULT_CHAR 32
FONT_ASCENT 27
FONT_DESCENT 8
SPACING "P"
FONTNAME_REGISTRY ""
FOUNDRY "Cronyx"
FAMILY_NAME "Times"
WEIGHT_NAME "Bold"
SLANT "I"
SETWIDTH_NAME "Normal"
ADD_STYLE_NAME ""
AVERAGE_WIDTH 124
CHARSET_REGISTRY "KOI8"
CHARSET_ENCODING "R"
PIXEL_SIZE 34
POINT_SIZE 240
RESOLUTION_X 100
RESOLUTION_Y 100
COPYRIGHT "Copyright (C) 1990, 1991 EWT Consulting, Portions Copyright (C) 1994 Cronyx Ltd., Portions Copyright (C) 1996-1997 by Andrey A. Chernov, Moscow, Russia."
_XMBDFED_INFO "Edited with xmbdfed 4.3."
_XFREE86_GLYPH_RANGES "32_126 149 154 156_158 163 179 191_255"
ENDPROPERTIES
CHARS 167
STARTCHAR space
ENCODING 32
SWIDTH 281 0
DWIDTH 9 0
BBX 0 0 -1 0
BITMAP
ENDCHAR
STARTCHAR exclam
ENCODING 33
SWIDTH 435 0
DWIDTH 10 0
BBX 9 23 2 0
BITMAP
0300
0780
0780
0780
0F00
0F00
0F00
0F00
1E00
1E00
0C00
0C00
1800
1800
1800
0000
0000
0000
0000
3000
F000
F000
6000
ENDCHAR
STARTCHAR quotedbl
ENCODING 34
SWIDTH 1857 0
DWIDTH 13 0
BBX 10 7 5 16
BITMAP
3180
7BC0
7BC0
7BC0
6300
6300
6300
ENDCHAR
STARTCHAR numbersign
ENCODING 35
SWIDTH 773 0
DWIDTH 17 0
BBX 22 22 -1 0
BITMAP
0038E0
0038E0
0038E0
0071C0
0071C0
0071C0
07FFF8
0FFFF0
01C700
01C700
01C700
038E00
038E00
038E00
3FFFC0
7FFF80
0E3800
0E3800
0E3800
1C7000
1C7000
1C7000
ENDCHAR
STARTCHAR dollar
ENCODING 36
SWIDTH 607 0
DWIDTH 17 0
BBX 22 28 0 -3
BITMAP
000700
000E00
000E00
003FB0
00FFF0
03DCE0
03DC60
07DC60
07DC00
0FB800
07F800
07F800
03FC00
03FC00
00FF00
007F80
007F80
00FF80
00EF80
30EF80
30EF80
71DE00
79DE00
7DFC00
6FF000
038000
038000
038000
ENDCHAR
STARTCHAR percent
ENCODING 37
SWIDTH 1261 0
DWIDTH 29 0
BBX 32 23 0 0
BITMAP
003F01E0
00F7C7C0
01E1FFC0
03C1FF80
07818E00
0F018E00
0F039C00
0F033800
1E0E7000
0F1CE000
0FF9C000
03E1C3E0
00071EF0
000E3C30
000E7838
001C7818
0071E030
0071E070
00E1E060
01C1E0E0
0381E380
0701FF00
0E007C00
ENDCHAR
STARTCHAR ampersand
ENCODING 38
SWIDTH 1130 0
DWIDTH 26 0
BBX 26 23 2 0
BITMAP
001E0000
007F8000
00738000
00E1C000
01C38000
01C38000
01E70000
00FE0000
01F80000
01F80000
03F8FF00
07BC3C00
1E787000
1C3C7000
3C1EE000
3C1EE000
781F8000
781F8000
7C0F0000
3C0F8C00
7E3FB800
3FF7F000
0FC3E000
ENDCHAR
STARTCHAR quotesingle
ENCODING 39
SWIDTH 1429 0
DWIDTH 10 0
BBX 5 7 6 16
BITMAP
30
78
78
78
60
60
60
ENDCHAR
STARTCHAR parenleft
ENCODING 40
SWIDTH 414 0
DWIDTH 12 0
BBX 16 29 0 -7
BITMAP
0007
000E
0038
0038
0070
0070
01C0
01C0
03C0
0380
0700
0F00
0F00
0F00
1E00
1E00
1E00
1E00
1C00
1C00
1E00
0E00
1C00
0E00
0E00
0700
0E00
0700
0380
ENDCHAR
STARTCHAR parenright
ENCODING 41
SWIDTH 414 0
DWIDTH 12 0
BBX 16 29 -1 -7
BITMAP
01C0
00E0
00E0
00E0
0070
0070
0070
0070
0078
0038
0070
0078
0078
0078
00F0
00F0
00F0
00F0
01C0
01C0
03C0
0380
0700
0E00
0E00
1C00
3800
7000
E000
ENDCHAR
STARTCHAR asterisk
ENCODING 42
SWIDTH 1214 0
DWIDTH 17 0
BBX 15 14 3 11
BITMAP
00C0
01E0
01E0
3FFC
3DBC
3FFC
03C0
0780
7FF8
7B78
7FF8
0F00
0F00
0600
ENDCHAR
STARTCHAR plus
ENCODING 43
SWIDTH 1188 0
DWIDTH 19 0
BBX 21 16 1 1
BITMAP
001C00
003800
003800
003800
003800
007000
007000
3FFFE0
3FFFE0
00E000
00E000
00E000
00E000
01C000
01C000
01C000
ENDCHAR
STARTCHAR comma
ENCODING 44
SWIDTH 1286 0
DWIDTH 9 0
BBX 6 7 1 -3
BITMAP
38
7C
7C
3C
38
30
E0
ENDCHAR
STARTCHAR hyphen
ENCODING 45
SWIDTH 5500 0
DWIDTH 11 0
BBX 9 2 2 8
BITMAP
FF80
FF80
ENDCHAR
STARTCHAR period
ENCODING 46
SWIDTH 2250 0
DWIDTH 9 0
BBX 6 4 1 0
BITMAP
38
F8
F8
70
ENDCHAR
STARTCHAR slash
ENCODING 47
SWIDTH 375 0
DWIDTH 9 0
BBX 15 24 -1 -1
BITMAP
000E
001C
001C
0038
0038
0070
00E0
00E0
00E0
0380
0380
0380
0380
0E00
0E00
0E00
1C00
3800
3800
3800
7000
E000
E000
E000
ENDCHAR
STARTCHAR zero
ENCODING 48
SWIDTH 773 0
DWIDTH 17 0
BBX 20 22 0 0
BITMAP
003E00
00F780
01C1C0
0783C0
0701C0
0F01E0
0F01E0
1E03C0
1E03C0
1E03C0
1E03C0
3C0780
3C0780
3C0780
3C0780
780F00
780F00
380E00
3C1E00
383800
1EF000
07C000
ENDCHAR
STARTCHAR one
ENCODING 49
SWIDTH 773 0
DWIDTH 17 0
BBX 14 22 3 0
BITMAP
0060
00E0
01E0
07C0
0FC0
01C0
01C0
0380
0380
0380
0380
0700
0700
0700
0700
0E00
0E00
0E00
0E00
1C00
3E00
FF80
ENDCHAR
STARTCHAR two
ENCODING 50
SWIDTH 773 0
DWIDTH 17 0
BBX 20 22 0 0
BITMAP
007E00
01FF80
038FC0
0E0F80
0C07C0
0007C0
0007C0
000F80
000F80
000F00
000F00
003C00
003800
007000
00E000
038000
070000
0E0000
1C0300
7FFE00
FFFC00
FFFC00
ENDCHAR
STARTCHAR three
ENCODING 51
SWIDTH 773 0
DWIDTH 17 0
BBX 19 22 1 0
BITMAP
007E00
01FF80
038F80
060F80
000780
000780
000700
001E00
001C00
007800
03FE00
00FE00
003E00
001F00
000F00
001E00
001E00
001E00
001C00
F07800
F8F000
3FC000
ENDCHAR
STARTCHAR four
ENCODING 52
SWIDTH 773 0
DWIDTH 17 0
BBX 20 22 0 0
BITMAP
0003C0
0003C0
0007C0
001F80
003F80
003F80
007780
01CF00
038F00
038F00
070F00
1C1E00
381E00
3FFF80
3FFF80
7FFF00
003C00
003C00
003C00
007800
007800
007800
ENDCHAR
STARTCHAR five
ENCODING 53
SWIDTH 773 0
DWIDTH 17 0
BBX 19 22 0 0
BITMAP
007FC0
007FC0
007F80
018000
018000
030000
03C000
0FF000
0FFC00
007E00
001F00
001E00
000F00
000F00
000700
000E00
000E00
381C00
7C1C00
7CF000
3FE000
0F8000
ENDCHAR
STARTCHAR six
ENCODING 54
SWIDTH 773 0
DWIDTH 17 0
BBX 20 22 0 0
BITMAP
000F80
003C00
007000
01C000
03C000
038000
078000
0E0000
1E7C00
1FFF00
1F8F80
3E0F80
3C0780
3C0780
3C0780
780F00
780F00
3C1E00
3C1E00
3C7800
1FF000
07C000
ENDCHAR
STARTCHAR seven
ENCODING 55
SWIDTH 773 0
DWIDTH 17 0
BBX 20 22 0 0
BITMAP
03FFF0
03FFE0
07FFE0
0C01C0
000380
000380
000380
000E00
000E00
000E00
001C00
003800
003800
007000
007000
00E000
01C000
01C000
01C000
070000
070000
070000
ENDCHAR
STARTCHAR eight
ENCODING 56
SWIDTH 773 0
DWIDTH 17 0
BBX 20 22 0 0
BITMAP
007F00
01E3C0
01C1C0
0781C0
0781C0
0781C0
03C1C0
07C700
03FE00
01FE00
03FF00
0E7F00
1C1F00
1C0F80
380780
700F00
700700
700700
300600
701C00
383800
0FE000
ENDCHAR
STARTCHAR nine
ENCODING 57
SWIDTH 773 0
DWIDTH 17 0
BBX 20 22 0 0
BITMAP
003E00
00FF80
01E3C0
0783C0
0701C0
0F01E0
0F01E0
1E03C0
1E03C0
1E03C0
1F03C0
1F0F80
0FFF80
03E780
000700
001E00
001C00
003C00
003800
00E000
03C000
1F0000
ENDCHAR
STARTCHAR colon
ENCODING 58
SWIDTH 600 0
DWIDTH 9 0
BBX 8 15 1 0
BITMAP
0E
1F
1F
0E
00
00
00
00
00
00
00
38
F8
F8
70
ENDCHAR
STARTCHAR semicolon
ENCODING 59
SWIDTH 500 0
DWIDTH 9 0
BBX 9 18 1 -3
BITMAP
0700
0F80
0F80
0E00
0000
0000
0000
0000
0000
0000
0000
0000
3800
7C00
3C00
3800
3000
E000
ENDCHAR
STARTCHAR less
ENCODING 60
SWIDTH 1188 0
DWIDTH 19 0
BBX 21 16 1 2
BITMAP
000038
0001F0
0007C0
001F80
007C00
03E000
0F8000
3E0000
3E0000
1F0000
07C000
01F000
007C00
003E00
000F80
000380
ENDCHAR
STARTCHAR equal
ENCODING 61
SWIDTH 2375 0
DWIDTH 19 0
BBX 19 8 1 7
BITMAP
3FFFE0
7FFFC0
000000
000000
000000
000000
FFFF80
FFFF80
ENDCHAR
STARTCHAR greater
ENCODING 62
SWIDTH 1188 0
DWIDTH 19 0
BBX 21 16 1 2
BITMAP
0E0000
1F0000
07C000
01F000
007C00
003E00
000F80
0003E0
0003E0
001F00
007C00
01F000
07C000
3E0000
F80000
E00000
ENDCHAR
STARTCHAR question
ENCODING 63
SWIDTH 652 0
DWIDTH 15 0
BBX 17 23 0 0
BITMAP
01FC00
038F00
070F00
070780
0F0F00
0F0F00
060E00
001E00
003800
007000
007000
006000
01C000
018000
018000
018000
000000
000000
000000
070000
1F0000
1F0000
0E0000
ENDCHAR
STARTCHAR at
ENCODING 64
SWIDTH 1154 0
DWIDTH 30 0
BBX 34 26 -1 -4
BITMAP
0001FF8000
000781E000
001E007800
0078003800
00F0001C00
01E0000E00
01E0000E00
07807B8E00
0781EF8E00
0783878E00
0F07070700
1E0E0E0E00
1E1C0E0E00
1E1C1C0E00
1E1C1C0E00
3C38383800
1E1C7C3800
1E1EFEF000
1E0787C000
1E00000000
1E00000000
0F00000000
0780000000
07800E0000
01E0380000
007FE00000
ENDCHAR
STARTCHAR A
ENCODING 65
SWIDTH 1045 0
DWIDTH 23 0
BBX 28 22 -1 0
BITMAP
00018000
00018000
0001C000
00078000
0007C000
000FC000
000FC000
001FC000
003FC000
003BE000
0073E000
00E3E000
00E3E000
01C3E000
01C1F000
07FFE000
0701F000
0701F000
0E00F800
1C01F000
3C03F800
FF0FFE00
ENDCHAR
STARTCHAR B
ENCODING 66
SWIDTH 1000 0
DWIDTH 22 0
BBX 25 22 0 0
BITMAP
07FFF000
01F87C00
00F03E00
01E03C00
01E03E00
01E03E00
01E03E00
03C07800
03C0F800
03C1F000
03FFE000
0783E000
0780F000
0780F800
07807800
0F00F800
0F00F800
0F00F800
0F01F000
1E03E000
3F0FC000
FFFF0000
ENDCHAR
STARTCHAR C
ENCODING 67
SWIDTH 1000 0
DWIDTH 22 0
BBX 25 22 0 0
BITMAP
000FE600
003E3E00
00F80E00
03E00C00
03C00000
07C00000
07800000
1F000000
1F000000
1F000000
1F000000
3E000000
3E000000
3E000000
3E000000
3E000000
3E000000
1F001800
1F803000
1FC0C000
07FF8000
01FE0000
ENDCHAR
STARTCHAR D
ENCODING 68
SWIDTH 1045 0
DWIDTH 23 0
BBX 26 22 0 0
BITMAP
07FFF000
01F8FC00
00F03E00
01E03E00
01E01E00
01E01F00
01E00F00
03C01F00
03C01F00
03C01F00
03C01F00
07803E00
07803E00
07803E00
07803E00
0F007800
0F00F800
0F00F000
0F01F000
1E07C000
3F1F8000
FFFE0000
ENDCHAR
STARTCHAR E
ENCODING 69
SWIDTH 955 0
DWIDTH 21 0
BBX 24 22 0 0
BITMAP
07FFFC
01F81C
00F00C
01E018
01E000
01E000
01E000
03C0C0
03C0C0
03C1C0
03FFC0
078380
078180
078180
078000
0F0000
0F0000
0F0000
0F0030
1E00E0
3F03C0
FFFFC0
ENDCHAR
STARTCHAR F
ENCODING 70
SWIDTH 864 0
DWIDTH 19 0
BBX 22 22 0 0
BITMAP
07FFFC
01F81C
00F00C
01E018
01E000
01E000
01E000
03C0C0
03C0C0
03C1C0
03FFC0
078380
078180
078180
078000
0F0000
0F0000
0F0000
0F0000
1E0000
3F0000
FFC000
ENDCHAR
STARTCHAR G
ENCODING 71
SWIDTH 1091 0
DWIDTH 24 0
BBX 27 22 1 0
BITMAP
000FE600
003E3E00
00F80E00
03E00C00
03C00000
07C00000
07800000
1F000000
1F000000
1F000000
1F000000
3E03FF00
3E00FC00
3E007800
3E007800
3E00F000
3E00F000
1F00F000
1F80F000
1FC1C000
07FF8000
01FE0000
ENDCHAR
STARTCHAR H
ENCODING 72
SWIDTH 1091 0
DWIDTH 24 0
BBX 27 22 0 0
BITMAP
07FE7FE0
01F81F80
00F00F00
01E01E00
01E01E00
01E01E00
01E01E00
03C03C00
03C03C00
03C03C00
03FFFC00
07807800
07807800
07807800
07807800
0F00F000
0F00F000
0F00F000
0F00F000
1E01E000
3F03F000
FFCFFC00
ENDCHAR
STARTCHAR I
ENCODING 73
SWIDTH 545 0
DWIDTH 12 0
BBX 15 22 0 0
BITMAP
07FE
01F8
00F0
01E0
01E0
01E0
01E0
03C0
03C0
03C0
03C0
0780
0780
0780
0780
0F00
0F00
0F00
0F00
1E00
3F00
FFC0
ENDCHAR
STARTCHAR J
ENCODING 74
SWIDTH 636 0
DWIDTH 14 0
BBX 18 22 -1 0
BITMAP
00FFC0
003F00
001E00
003C00
003C00
003C00
003C00
007800
007800
007800
007800
00F000
00F000
00F000
00F000
01E000
01E000
31E000
79E000
F3C000
7B8000
1F0000
ENDCHAR
STARTCHAR K
ENCODING 75
SWIDTH 1045 0
DWIDTH 23 0
BBX 27 22 0 0
BITMAP
07FE7F80
01F81E00
00F01C00
01E07000
01E0E000
01E1C000
01E38000
03CE0000
03DC0000
03FE0000
03FF0000
07DE0000
078F0000
07878000
07878000
0F078000
0F03C000
0F03C000
0F01E000
1E01E000
3F03F000
FFCFFC00
ENDCHAR
STARTCHAR L
ENCODING 76
SWIDTH 955 0
DWIDTH 21 0
BBX 24 22 0 0
BITMAP
07FE00
01F800
00F000
01E000
01E000
01E000
01E000
03C000
03C000
03C000
03C000
078000
078000
078000
078000
0F0000
0F0000
0F0000
0F0030
1E00E0
3F03C0
FFFFC0
ENDCHAR
STARTCHAR M
ENCODING 77
SWIDTH 1318 0
DWIDTH 29 0
BBX 32 22 0 0
BITMAP
07F8007F
01F8007C
00F800F8
01F801F0
01F801F0
01FC03F0
01BC03F0
03780DE0
037C0DE0
033C0DE0
033E19E0
063C33C0
063C63C0
063E63C0
061E63C0
0C3F8780
0C1F8780
0C1F0780
0C0F0780
181E0F00
3C0C1F80
FF0C7FE0
ENDCHAR
STARTCHAR N
ENCODING 78
SWIDTH 1091 0
DWIDTH 24 0
BBX 27 22 0 0
BITMAP
07E01FE0
01F00780
00F80300
01F00600
01F80600
01FC0600
01BE0600
037C0C00
033E0C00
031F0C00
030F8C00
061F1800
060F9800
0607D800
0603F800
0C07F000
0C03F000
0C01F000
0C00F000
1801E000
3C00E000
FF006000
ENDCHAR
STARTCHAR O
ENCODING 79
SWIDTH 1000 0
DWIDTH 22 0
BBX 25 22 0 0
BITMAP
001FE000
007CF800
00F03C00
03C03C00
03C03C00
07801E00
07801E00
1F003E00
1F003E00
1F003E00
1F003E00
3E007C00
3E007C00
3E007C00
3E007C00
3C00F000
3C00F000
1E01E000
1E01E000
1E078000
0F9F0000
03FC0000
ENDCHAR
STARTCHAR P
ENCODING 80
SWIDTH 909 0
DWIDTH 20 0
BBX 23 22 0 0
BITMAP
07FFF0
01F8FC
00F07C
01E07C
01E07C
01E07C
01E07C
03C0F8
03C1F0
03C3F0
03FFC0
078000
078000
078000
078000
0F0000
0F0000
0F0000
0F0000
1E0000
3F0000
FFC000
ENDCHAR
STARTCHAR Q
ENCODING 81
SWIDTH 815 0
DWIDTH 22 0
BBX 26 27 -1 -5
BITMAP
000FF000
003E7C00
00781E00
00F00F00
01E01E00
03C00F00
03C00F00
07C00F80
0F801F00
0F801F00
0F801F00
0F801F00
1F003E00
1F003E00
1F003E00
0F003C00
1E007800
0F00F000
0F00F000
0781E000
07CF8000
01FE0000
007C0000
003C0000
007C0000
003E0000
000FC000
ENDCHAR
STARTCHAR R
ENCODING 82
SWIDTH 1000 0
DWIDTH 22 0
BBX 26 22 0 0
BITMAP
07FFF000
01F8FC00
00F07C00
01E07C00
01E07C00
01E07C00
01E07C00
03C0F800
03C1F000
03C3F000
03FFC000
07BE0000
079E0000
078F0000
078F8000
0F0F0000
0F078000
0F07C000
0F03C000
1E03C000
3F03E000
FFC1F800
ENDCHAR
STARTCHAR S
ENCODING 83
SWIDTH 773 0
DWIDTH 17 0
BBX 20 22 0 0
BITMAP
007F60
01E3E0
03C0E0
0780C0
0F80C0
0F8000
0F8000
0F8000
0FE000
07F800
03FC00
01FE00
00FF00
003F00
001F80
001F00
601F00
601F00
701E00
F03C00
F87800
DFE000
ENDCHAR
STARTCHAR T
ENCODING 84
SWIDTH 1000 0
DWIDTH 22 0
BBX 25 22 0 0
BITMAP
07FFFF80
07078380
06078180
0C0F0300
000F0000
000F0000
000F0000
001E0000
001E0000
001E0000
001E0000
003C0000
003C0000
003C0000
003C0000
00780000
00780000
00780000
00780000
00F00000
01F80000
07FE0000
ENDCHAR
STARTCHAR U
ENCODING 85
SWIDTH 1091 0
DWIDTH 24 0
BBX 27 22 0 0
BITMAP
07FE1FE0
01F80780
00F00300
01E00600
01E00600
01E00600
01E00600
03C00C00
03C00C00
03C00C00
03C00C00
07801800
07801800
07801800
07801800
0F003000
0F003000
0F803000
07806000
0F80C000
07E38000
01FE0000
ENDCHAR
STARTCHAR V
ENCODING 86
SWIDTH 1045 0
DWIDTH 23 0
BBX 28 22 -1 0
BITMAP
07FE07F0
01F801C0
00F001C0
01F00300
00F00700
00F80600
00780600
00F01C00
00F81800
00783800
007C3000
0078E000
007CC000
003CC000
003FC000
007F0000
003F0000
003E0000
001E0000
00380000
00180000
00180000
ENDCHAR
STARTCHAR W
ENCODING 87
SWIDTH 1545 0
DWIDTH 34 0
BBX 39 22 -1 0
BITMAP
07FE7FE3FE
01FC3F80F8
00F81F0070
00F01E00C0
00F81F01C0
00780F0180
007C1F8180
00F83F0700
00783F0600
007C3F8600
003C778E00
007CCF9800
003CC79800
003DC7B800
003F87F000
003F07E000
003F07E000
001E03C000
001E03C000
0018030000
0018030000
0018030000
ENDCHAR
STARTCHAR X
ENCODING 88
SWIDTH 1091 0
DWIDTH 24 0
BBX 29 22 -1 0
BITMAP
03FE0FE0
00F80380
007C0300
007C0C00
007C1800
003E1800
001F3000
003EC000
001F8000
000F8000
000FC000
000F8000
001FC000
003BE000
0033E000
00C3E000
01C1F000
0181F000
0300F800
0E00F800
3C00FC00
FF83FF00
ENDCHAR
STARTCHAR Y
ENCODING 89
SWIDTH 1045 0
DWIDTH 23 0
BBX 28 22 -1 0
BITMAP
07FE0FF0
01F803C0
007C0180
00780600
007C0600
003E0C00
001E1800
003E3000
001F6000
000FC000
000FC000
000F0000
000F0000
000F0000
000F0000
001E0000
001E0000
001E0000
001E0000
003C0000
007E0000
01FF8000
ENDCHAR
STARTCHAR Z
ENCODING 90
SWIDTH 1000 0
DWIDTH 22 0
BBX 26 22 -1 0
BITMAP
01FFFFC0
01C00F80
01800F80
03003E00
00007C00
0000F800
0000F800
0003E000
0007C000
000F8000
000F8000
003E0000
007C0000
00F80000
00F80000
03E00000
07C00000
0F800000
0F800C00
3E003800
7C00F000
FFFFF000
ENDCHAR
STARTCHAR bracketleft
ENCODING 91
SWIDTH 414 0
DWIDTH 12 0
BBX 15 29 0 -6
BITMAP
01FE
01F0
03C0
03C0
03C0
03C0
0780
0780
0780
0780
0F00
0F00
0F00
0F00
1E00
1E00
1E00
1E00
3C00
3C00
3C00
3C00
7800
7800
7800
7800
F000
F800
FF00
ENDCHAR
STARTCHAR backslash
ENCODING 92
SWIDTH 391 0
DWIDTH 9 0
BBX 14 23 -1 0
BITMAP
0700
0700
0700
0380
0700
0700
0380
0380
0700
0380
0380
0380
0700
0380
0380
0380
0380
0380
0380
0380
0380
0380
0380
ENDCHAR
STARTCHAR bracketright
ENCODING 93
SWIDTH 414 0
DWIDTH 12 0
BBX 15 29 0 -6
BITMAP
01FE
003E
003C
003C
003C
003C
0078
0078
0078
0078
00F0
00F0
00F0
00F0
01E0
01E0
01E0
01E0
03C0
03C0
03C0
03C0
0780
0780
0780
0780
0F00
1F00
FF00
ENDCHAR
STARTCHAR asciicircum
ENCODING 94
SWIDTH 2429 0
DWIDTH 17 0
BBX 16 7 4 16
BITMAP
01C0
03E0
07F0
0F78
3C78
783C
F01E
ENDCHAR
STARTCHAR underscore
ENCODING 95
SWIDTH 8500 0
DWIDTH 17 0
BBX 17 2 -1 -3
BITMAP
FFFF80
FFFF80
ENDCHAR
STARTCHAR grave
ENCODING 96
SWIDTH 3000 0
DWIDTH 12 0
BBX 7 4 7 19
BITMAP
70
F0
38
0C
ENDCHAR
STARTCHAR a
ENCODING 97
SWIDTH 1000 0
DWIDTH 15 0
BBX 16 15 0 0
BITMAP
03F0
0F38
1E3C
1E3C
1878
00F8
03F8
0F78
3CF0
78F0
78F0
78F0
FBE0
7FF8
3CF0
ENDCHAR
STARTCHAR b
ENCODING 98
SWIDTH 783 0
DWIDTH 18 0
BBX 21 23 0 0
BITMAP
00E000
01E000
07E000
01E000
03C000
03C000
03C000
03C000
07BE00
07FF80
0787C0
0783C0
0F07C0
0F03C0
0F03C0
0F03C0
1E0780
1E0780
1E0F00
1E0F00
3C3C00
1EF800
07E000
ENDCHAR
STARTCHAR c
ENCODING 99
SWIDTH 1000 0
DWIDTH 15 0
BBX 16 15 0 0
BITMAP
01F0
07BC
0F1E
0E1E
3C18
3C00
3C00
3C00
7800
7800
7800
7C0C
7C30
3FE0
1FC0
ENDCHAR
STARTCHAR d
ENCODING 100
SWIDTH 783 0
DWIDTH 18 0
BBX 21 23 0 0
BITMAP
000070
0000F0
0003F0
0000F0
0001E0
0001E0
0001E0
0001E0
01F3C0
079FC0
0F07C0
0E03C0
3C0780
3C0780
3C0780
3C0780
780F00
780F00
7C0F00
3C0F00
7E3F00
3FFC00
0F9800
ENDCHAR
STARTCHAR e
ENCODING 101
SWIDTH 1000 0
DWIDTH 15 0
BBX 16 15 0 0
BITMAP
01E0
07F8
0F3C
0E1C
3C3C
3C3C
3FFC
3C00
7800
7800
7C00
3E1C
7FF0
3FE0
0F80
ENDCHAR
STARTCHAR f
ENCODING 102
SWIDTH 565 0
DWIDTH 13 0
BBX 16 23 0 0
BITMAP
007E
00EF
01E7
01E0
03C0
03C0
03C0
03C0
1FE0
0780
0780
0780
0F00
0F00
0F00
0F00
1E00
1E00
1E00
1E00
3C00
7E00
FF00
ENDCHAR
STARTCHAR g
ENCODING 103
SWIDTH 696 0
DWIDTH 16 0
BBX 20 23 -2 -8
BITMAP
007F70
01EFE0
038780
0383C0
0F0780
0F0780
0F0700
078700
0FBC00
07F000
030000
060000
1C0000
1FF800
1FFE00
0FFF00
0E0F00
380700
780700
7C0E00
FFFC00
7FF800
1FE000
ENDCHAR
STARTCHAR h
ENCODING 104
SWIDTH 783 0
DWIDTH 18 0
BBX 21 23 0 0
BITMAP
00E000
01E000
07E000
01E000
03C000
03C000
03C000
03C000
07BE00
07FF00
07CF80
078780
0F0F00
0F0F00
0F0F00
0F0F00
1E1E00
1E1E00
1E1E00
1E1E00
3C3C00
7E7E00
FFFF00
ENDCHAR
STARTCHAR i
ENCODING 105
SWIDTH 435 0
DWIDTH 10 0
BBX 13 23 0 0
BITMAP
00C0
01E0
01E0
00C0
0000
0000
0000
0000
0180
0780
1F80
0780
0F00
0F00
0F00
0F00
1E00
1E00
1E00
1E00
3C00
7E00
FF00
ENDCHAR
STARTCHAR j
ENCODING 106
SWIDTH 323 0
DWIDTH 10 0
BBX 14 31 -3 -8
BITMAP
0018
003C
003C
0018
0000
0000
0000
0000
0030
00F0
03F0
00F0
01E0
01E0
01E0
01E0
03C0
03C0
03C0
03C0
0780
0780
0780
0780
0F00
0F00
0F00
0F00
1C00
FC00
F800
ENDCHAR
STARTCHAR k
ENCODING 107
SWIDTH 739 0
DWIDTH 17 0
BBX 21 23 0 0
BITMAP
00E000
01E000
07E000
01E000
03C000
03C000
03C000
03C000
079F00
078C00
079800
07B000
0FC000
0F8000
0FC000
0FE000
1FE000
1EF000
1E7800
1E3C00
3C3C00
7E1E00
FF7F00
ENDCHAR
STARTCHAR l
ENCODING 108
SWIDTH 435 0
DWIDTH 10 0
BBX 13 23 0 0
BITMAP
00E0
01E0
07E0
01E0
03C0
03C0
03C0
03C0
0780
0780
0780
0780
0F00
0F00
0F00
0F00
1E00
1E00
1E00
1E00
3C00
7E00
FF00
ENDCHAR
STARTCHAR m
ENCODING 109
SWIDTH 1667 0
DWIDTH 25 0
BBX 27 15 0 0
BITMAP
03BE3E00
07FF7F00
1FCFCF80
07878780
0F0F0F00
0F0F0F00
0F0F0F00
0F0F0F00
1E1E1E00
1E1E1E00
1E1E1E00
1E1E1E00
3C3C3C00
7E7E7E00
FFFFFF00
ENDCHAR
STARTCHAR n
ENCODING 110
SWIDTH 1133 0
DWIDTH 17 0
BBX 19 15 0 0
BITMAP
03BE00
07FF00
1FCF80
078780
0F0F00
0F0F00
0F0F00
0F0F00
1E1E00
1E1E00
1E1E00
1E1E00
3C3C00
7E7E00
FFFF00
ENDCHAR
STARTCHAR o
ENCODING 111
SWIDTH 1133 0
DWIDTH 17 0
BBX 18 15 0 0
BITMAP
00FC00
03DF00
070F80
0F0780
1C0F80
3C0780
3C0780
3C0780
780F00
780F00
780E00
3C1E00
7C3800
3EF000
0FC000
ENDCHAR
STARTCHAR p
ENCODING 112
SWIDTH 783 0
DWIDTH 18 0
BBX 21 23 -2 -8
BITMAP
00EF80
01FFE0
07E1F0
01E0F0
03C1F0
03C0F0
03C0F0
03C0F0
0781E0
0781E0
0783C0
0783C0
0F0F00
0FBE00
0FF800
0F0000
1E0000
1E0000
1E0000
1E0000
3C0000
7E0000
FF0000
ENDCHAR
STARTCHAR q
ENCODING 113
SWIDTH 739 0
DWIDTH 17 0
BBX 21 23 -2 -8
BITMAP
007C60
01E7E0
03C1E0
0381E0
0F03C0
0F03C0
0F03C0
0F03C0
1E0780
1E0780
1F0780
0F0780
1F8F00
0FFF00
03EF00
000F00
001E00
001E00
001E00
001E00
003C00
007E00
00FF00
ENDCHAR
STARTCHAR r
ENCODING 114
SWIDTH 933 0
DWIDTH 14 0
BBX 15 15 0 0
BITMAP
03BC
07FE
1FDE
0780
0F00
0F00
0F00
0F00
1E00
1E00
1E00
1E00
3C00
7E00
FF00
ENDCHAR
STARTCHAR s
ENCODING 115
SWIDTH 933 0
DWIDTH 14 0
BBX 14 15 1 0
BITMAP
07F8
0F38
1E18
1E18
3E00
1E00
1F80
07E0
03E0
01F0
60F0
60F0
E1E0
FBC0
DF80
ENDCHAR
STARTCHAR t
ENCODING 116
SWIDTH 550 0
DWIDTH 11 0
BBX 15 20 0 0
BITMAP
0060
00C0
01C0
03C0
03C0
1FF0
0780
0780
0780
0F00
0F00
0F00
0F00
1E00
1E00
1E00
1E00
3CC0
1F80
0F00
ENDCHAR
STARTCHAR u
ENCODING 117
SWIDTH 1133 0
DWIDTH 17 0
BBX 19 15 0 0
BITMAP
1F0F80
0F0780
0F0780
0F0780
1E0F00
1E0F00
1E0F00
1E0F00
3C1E00
3C1E00
3C1E00
3C1E00
3C7F00
1FFC00
0FB800
ENDCHAR
STARTCHAR v
ENCODING 118
SWIDTH 1267 0
DWIDTH 19 0
BBX 20 15 0 0
BITMAP
1FE7F0
0781C0
078180
03C180
078600
03C600
03C600
01EC00
03D800
01F800
01F000
00F000
01C000
00C000
00C000
ENDCHAR
STARTCHAR w
ENCODING 119
SWIDTH 1800 0
DWIDTH 27 0
BBX 28 15 0 0
BITMAP
1FEFF3F0
0783C0C0
0783C0C0
03C3E180
0787C300
0787E300
03CDE600
03CDF600
03F1F800
03F1F800
03F1F800
01E0F000
03C1E000
0180C000
0180C000
ENDCHAR
STARTCHAR x
ENCODING 120
SWIDTH 1133 0
DWIDTH 17 0
BBX 19 15 0 0
BITMAP
1FCFC0
078700
03CE00
03CC00
03F800
01F000
01F000
00F000
03F000
03F000
077800
063C00
1C7800
383C00
FEFF00
ENDCHAR
STARTCHAR y
ENCODING 121
SWIDTH 826 0
DWIDTH 19 0
BBX 22 23 -2 -8
BITMAP
07F9FC
01E070
01E060
00F060
01E180
00F180
00F180
007B00
00F600
007E00
007C00
003C00
007000
003000
003000
006000
00C000
018000
018000
030000
7E0000
FC0000
780000
ENDCHAR
STARTCHAR z
ENCODING 122
SWIDTH 1067 0
DWIDTH 16 0
BBX 17 15 0 0
BITMAP
0FFF80
0E0F00
0C1E00
0C1E00
007800
00F000
00F000
01E000
078000
078000
0F0000
1E0600
3C0C00
781C00
FFFC00
ENDCHAR
STARTCHAR braceleft
ENCODING 123
SWIDTH 467 0
DWIDTH 14 0
BBX 18 30 0 -6
BITMAP
0003C0
000F00
000E00
003C00
003C00
003C00
003C00
007800
007800
007800
007800
01E000
01E000
03C000
0F0000
078000
03C000
03C000
01E000
03C000
03C000
03C000
03C000
078000
078000
078000
078000
070000
078000
01E000
ENDCHAR
STARTCHAR bar
ENCODING 124
SWIDTH 417 0
DWIDTH 10 0
BBX 10 24 2 -1
BITMAP
03C0
0780
0780
0780
0780
0F00
0F00
0F00
0F00
1E00
1E00
1E00
1E00
3C00
3C00
3C00
3C00
7800
7800
7800
7800
F000
F000
F000
ENDCHAR
STARTCHAR braceright
ENCODING 125
SWIDTH 467 0
DWIDTH 14 0
BBX 18 30 0 -6
BITMAP
01E000
007800
003800
007800
007800
007800
007800
00F000
00F000
00F000
00F000
00F000
00F000
007800
001E00
00F000
01E000
01E000
03C000
078000
078000
078000
078000
0F0000
0F0000
0F0000
0F0000
1C0000
3C0000
F00000
ENDCHAR
STARTCHAR asciitilde
ENCODING 126
SWIDTH 4250 0
DWIDTH 17 0
BBX 15 4 4 19
BITMAP
1F06
7F9C
E7F8
C1F0
ENDCHAR
STARTCHAR bullet
ENCODING 149
SWIDTH 1500 0
DWIDTH 12 0
BBX 11 8 2 4
BITMAP
0F80
3F80
7FC0
7FC0
7FC0
FF80
7F00
3E00
ENDCHAR
STARTCHAR space
ENCODING 154
SWIDTH 281 0
DWIDTH 9 0
BBX 0 0 -1 0
BITMAP
ENDCHAR
STARTCHAR degree
ENCODING 156
SWIDTH 1500 0
DWIDTH 12 0
BBX 11 8 4 15
BITMAP
0F80
3F80
7BC0
71C0
71C0
F780
7F00
3E00
ENDCHAR
STARTCHAR twosuperior
ENCODING 157
SWIDTH 900 0
DWIDTH 9 0
BBX 11 10 2 13
BITMAP
1F80
31C0
01C0
0380
0700
0E00
1C00
7180
FF00
FE00
ENDCHAR
STARTCHAR periodcentered
ENCODING 158
SWIDTH 2250 0
DWIDTH 9 0
BBX 6 4 2 7
BITMAP
38
F8
F8
70
ENDCHAR
STARTCHAR afii10071
ENCODING 163
SWIDTH 700 0
DWIDTH 14 0
BBX 18 20 0 0
BITMAP
018600
079E00
079E00
030C00
000000
01E000
07F800
0F3C00
0E1C00
3C3C00
3C3C00
3FFC00
3C0000
780000
780000
7C0000
3E1C00
7FF000
3FE000
0F8000
ENDCHAR
STARTCHAR afii10023
ENCODING 179
SWIDTH 731 0
DWIDTH 19 0
BBX 25 26 0 0
BITMAP
00707000
00F8F800
00707000
00000000
07FFFC00
01F81C00
00F00C00
01E01800
01E00000
01E00000
01E00000
03C0C000
03C0C000
03C1C000
03FFC000
07838000
07818000
07818000
07800000
0F000000
0F000000
0F000000
0F003000
1E00E000
3F03C000
FFFFC000
ENDCHAR
STARTCHAR copyright
ENCODING 191
SWIDTH 1136 0
DWIDTH 25 0
BBX 28 22 0 0
BITMAP
0007F000
001FFC00
007C1F00
01E00F00
03C00780
03800380
0707F9C0
0E3EF380
1E3873C0
1C7831C0
1C7001C0
38E00380
38F00380
3C706780
1C7DC700
383F0E00
1C001C00
1E003C00
0F007800
0F83E000
03FF8000
00FE0000
ENDCHAR
STARTCHAR afii10096
ENCODING 192
SWIDTH 1667 0
DWIDTH 25 0
BBX 26 15 0 0
BITMAP
1FE1F800
0FC79E00
078F0F00
079E0780
0F380700
0F780780
0FF80780
0FF80780
1EF00F00
1EF00F00
1E781E00
1E781E00
3C787800
7E3CF000
FF0FC000
ENDCHAR
STARTCHAR afii10065
ENCODING 193
SWIDTH 1000 0
DWIDTH 15 0
BBX 17 15 0 0
BITMAP
03F800
0F1C00
1E1E00
1E1E00
183C00
007C00
03FC00
0F3C00
3C7800
787800
787800
787800
F8F000
7FFC00
3E3800
ENDCHAR
STARTCHAR afii10066
ENCODING 194
SWIDTH 682 0
DWIDTH 15 0
BBX 19 22 0 0
BITMAP
000060
007FE0
01FF80
078000
070000
0F0000
0FFC00
1FFE00
1FFF00
1F0F00
1E0780
3C0F00
3C0F00
3C0F00
3C0F00
781E00
781E00
781C00
783C00
78F000
7FE000
1F8000
ENDCHAR
STARTCHAR afii10088
ENCODING 195
SWIDTH 1111 0
DWIDTH 20 0
BBX 22 18 0 -3
BITMAP
0FF3FC
07E1F8
03C0F0
0781E0
0781E0
0781E0
0781E0
0F03C0
0F03C0
0F03C0
0F03C0
1E0780
1E0780
3F0F80
7FFFE0
0001C0
0000C0
0000C0
ENDCHAR
STARTCHAR afii10069
ENCODING 196
SWIDTH 1000 0
DWIDTH 18 0
BBX 20 18 0 -3
BITMAP
0FFFF0
07C7E0
0383C0
070780
070780
070780
070780
0E0F00
0E0F00
0E0F00
0E0F00
1C1E00
1C1E00
3C3F00
7FFF80
E00700
C00300
C00300
ENDCHAR
STARTCHAR afii10070
ENCODING 197
SWIDTH 933 0
DWIDTH 14 0
BBX 16 15 0 0
BITMAP
01E0
07F8
0F3C
0E1C
3C3C
3C3C
3FFC
3C00
7800
7800
7800
3C1C
7C70
3FE0
0F80
ENDCHAR
STARTCHAR afii10086
ENCODING 198
SWIDTH 731 0
DWIDTH 19 0
BBX 24 26 -2 -8
BITMAP
000FC0
000780
000780
003FC0
00FFF0
01CF38
03CF3C
071E38
0F1E3C
0F1E3C
0F1E3C
1E3C78
1E3C78
1E3C78
0F3CF0
0E79C0
07FF80
01FE00
007800
00F000
00F000
00F000
00F000
01E000
03F000
07F800
ENDCHAR
STARTCHAR afii10068
ENCODING 199
SWIDTH 933 0
DWIDTH 14 0
BBX 16 15 0 0
BITMAP
1FFF
0FC7
0783
0783
0F00
0F00
0F00
0F00
1E00
1E00
1E00
1E00
3C00
7E00
FF00
ENDCHAR
STARTCHAR afii10087
ENCODING 200
SWIDTH 1200 0
DWIDTH 18 0
BBX 19 15 0 0
BITMAP
1FCFC0
078700
03CE00
03CC00
03F800
01F000
01F000
00F000
03F000
03F000
077800
063C00
1C7800
383C00
FEFF00
ENDCHAR
STARTCHAR afii10074
ENCODING 201
SWIDTH 1333 0
DWIDTH 20 0
BBX 21 15 0 0
BITMAP
1FE3F8
0FC3F0
0787E0
0787E0
0F1FC0
0F1BC0
0F3BC0
0F33C0
1EE780
1EC780
1FC780
1F8780
3F0F00
7E1F80
FE3FC0
ENDCHAR
STARTCHAR afii10075
ENCODING 202
SWIDTH 1053 0
DWIDTH 20 0
BBX 22 19 0 0
BITMAP
007380
007380
003F00
000000
1FE3F8
0FC3F0
0787E0
0787E0
0F1FC0
0F1BC0
0F3BC0
0F33C0
1EE780
1EC780
1FC780
1F8780
3F0F00
7E1F80
FE3FC0
ENDCHAR
STARTCHAR afii10076
ENCODING 203
SWIDTH 1200 0
DWIDTH 18 0
BBX 20 15 0 0
BITMAP
1FE3E0
0FC7F0
078DE0
079800
0F6000
0FC000
0FC000
0FE000
1FE000
1EF000
1E7800
1E3C00
3C3C00
7E1E00
FF7F00
ENDCHAR
STARTCHAR afii10077
ENCODING 204
SWIDTH 1333 0
DWIDTH 20 0
BBX 21 15 0 0
BITMAP
03FFF8
01F3F0
00E1E0
00E1E0
01C3C0
01C3C0
01C3C0
01C3C0
038780
038780
038780
038780
F70F00
FE1F80
7C3FC0
ENDCHAR
STARTCHAR afii10078
ENCODING 205
SWIDTH 1600 0
DWIDTH 24 0
BBX 25 15 0 0
BITMAP
1F003F80
0F803F00
07807E00
07C07E00
0F81FC00
0FC1BC00
0DC3BC00
0DE33C00
19CE7800
19EC7800
18FC7800
18F87800
30F0F000
78E1F800
FC63FC00
ENDCHAR
STARTCHAR afii10079
ENCODING 206
SWIDTH 1333 0
DWIDTH 20 0
BBX 21 15 0 0
BITMAP
1FE7F8
0FC3F0
0781E0
0781E0
0F03C0
0F03C0
0FFFC0
0FFFC0
1E0780
1E0780
1E0780
1E0780
3C0F00
7E1F80
FF3FC0
ENDCHAR
STARTCHAR afii10080
ENCODING 207
SWIDTH 1200 0
DWIDTH 18 0
BBX 19 15 0 0
BITMAP
00FC00
03CF00
078780
0F03C0
1C0380
3C03C0
3C03C0
3C03C0
780780
780780
3C0F00
3C0F00
3C3C00
1E7800
07E000
ENDCHAR
STARTCHAR afii10081
ENCODING 208
SWIDTH 1333 0
DWIDTH 20 0
BBX 21 15 0 0
BITMAP
1FFFF8
0FC3F0
0781E0
0781E0
0F03C0
0F03C0
0F03C0
0F03C0
1E0780
1E0780
1E0780
1E0780
3C0F00
7E1F80
FF3FC0
ENDCHAR
STARTCHAR afii10097
ENCODING 209
SWIDTH 1333 0
DWIDTH 20 0
BBX 21 15 0 0
BITMAP
00FFF8
01E1F0
03C1E0
03C1E0
0783C0
0783C0
03C3C0
01FFC0
00F780
01E780
03C780
078780
1E0F00
3C1F80
FC3FC0
ENDCHAR
STARTCHAR afii10082
ENCODING 210
SWIDTH 739 0
DWIDTH 17 0
BBX 21 23 -2 -8
BITMAP
07FF80
03FFE0
01E1F0
01E0F0
03C1F0
03C0F0
03C0F0
03C0F0
0781E0
0781E0
0783C0
0783C0
0F0F00
0F3E00
0FF800
0F0000
1E0000
1E0000
1E0000
1E0000
3C0000
7E0000
FF0000
ENDCHAR
STARTCHAR afii10083
ENCODING 211
SWIDTH 933 0
DWIDTH 14 0
BBX 16 15 0 0
BITMAP
01F0
07BC
0F1E
0E1E
3C18
3C00
3C00
3C00
7800
7800
7C00
3E0C
7E30
3FE0
0FC0
ENDCHAR
STARTCHAR afii10084
ENCODING 212
SWIDTH 1200 0
DWIDTH 18 0
BBX 19 15 0 0
BITMAP
1FFFE0
1CFCE0
187860
187860
00F000
00F000
00F000
00F000
01E000
01E000
01E000
01E000
03C000
07E000
0FF000
ENDCHAR
STARTCHAR afii10085
ENCODING 213
SWIDTH 783 0
DWIDTH 18 0
BBX 22 23 -2 -8
BITMAP
07F9FC
01E070
01E060
00F060
01E180
00F180
00F180
007B00
00F600
007E00
007C00
003C00
007800
003000
003000
006000
00C000
018000
018000
3B0000
FE0000
FC0000
780000
ENDCHAR
STARTCHAR afii10072
ENCODING 214
SWIDTH 1867 0
DWIDTH 28 0
BBX 29 15 0 0
BITMAP
0F8FF1F0
1FC7E3F8
0FC3C3F0
0063C600
00679800
0037B000
001FE000
003FF000
00FFF000
01EF7800
03CF3C00
078F1E00
1E1E1E00
3C3F0F00
FF7FBFC0
ENDCHAR
STARTCHAR afii10067
ENCODING 215
SWIDTH 1000 0
DWIDTH 15 0
BBX 17 15 0 0
BITMAP
1FFC00
0FFE00
079F00
078F00
0F1E00
0F3E00
0FFC00
0FFC00
1E3C00
1E1E00
1E1E00
1E1E00
3C7C00
7FF800
FFF000
ENDCHAR
STARTCHAR afii10094
ENCODING 216
SWIDTH 1067 0
DWIDTH 16 0
BBX 17 15 0 0
BITMAP
1FE000
0FC000
078000
078000
0F0000
0F0000
0FF800
0FFE00
1E3E00
1E1E00
1E1E00
1E1E00
3C7C00
7FF800
FFE000
ENDCHAR
STARTCHAR afii10093
ENCODING 217
SWIDTH 1533 0
DWIDTH 23 0
BBX 24 15 0 0
BITMAP
1FE0FF
0FC07E
07803C
07803C
0F0078
0F0078
0FF878
0FFE78
1E3EF0
1E1EF0
1E1EF0
1E1EF0
3C7DE0
7FFBF0
FFE7F8
ENDCHAR
STARTCHAR afii10073
ENCODING 218
SWIDTH 933 0
DWIDTH 14 0
BBX 15 15 0 0
BITMAP
07F8
0FFC
1E3E
1C1E
003C
007C
07F8
07F0
00F0
0078
0078
7078
F1F0
7FE0
1FC0
ENDCHAR
STARTCHAR afii10090
ENCODING 219
SWIDTH 1867 0
DWIDTH 28 0
BBX 29 15 0 0
BITMAP
1FEFF7F8
0FC7E3F0
0783C1E0
0783C1E0
0F0783C0
0F0783C0
0F0783C0
0F0783C0
1E0F0780
1E0F0780
1E0F0780
1E0F0780
3C1E0F00
7E3F1F80
FFFFFFC0
ENDCHAR
STARTCHAR afii10095
ENCODING 220
SWIDTH 1000 0
DWIDTH 15 0
BBX 16 15 0 0
BITMAP
07F8
0FFC
1E1E
1C0F
301E
001E
061E
07FE
0C3C
003C
603C
703C
F0F0
7FE0
1FC0
ENDCHAR
STARTCHAR afii10091
ENCODING 221
SWIDTH 1556 0
DWIDTH 28 0
BBX 30 18 0 -3
BITMAP
0FF7FBFC
07E3F1F8
03C1E0F0
0783C1E0
0783C1E0
0783C1E0
0783C1E0
0F0783C0
0F0783C0
0F0783C0
0F0783C0
1E0F0780
1E0F0780
3F1F8F80
7FFFFFE0
000001C0
000000C0
000000C0
ENDCHAR
STARTCHAR afii10089
ENCODING 222
SWIDTH 1267 0
DWIDTH 19 0
BBX 20 15 0 0
BITMAP
1FEFF0
0FC7E0
0783C0
0783C0
0F0780
0F0780
0F0780
0F8F80
0FFF00
000F00
000F00
000F00
001E00
003F00
007F80
ENDCHAR
STARTCHAR afii10092
ENCODING 223
SWIDTH 1267 0
DWIDTH 19 0
BBX 20 15 0 0
BITMAP
1FFC00
1FF800
1CF000
18F000
31E000
01E000
01FF00
01FFC0
03C7C0
03C3C0
03C3C0
03C3C0
078F80
0FFF00
1FFC00
ENDCHAR
STARTCHAR afii10048
ENCODING 224
SWIDTH 1409 0
DWIDTH 31 0
BBX 34 22 0 0
BITMAP
07FE0FF000
01F83E7C00
00F0781E00
01E1E01E00
01E1E01E00
01E3C00F00
01E3C00F00
03CF801F00
03CF801F00
03CF801F00
03FF801F00
079F003E00
079F003E00
079F003E00
079F003E00
0F1E007800
0F1E007800
0F0F00F000
0F0F00F000
1E0F03C000
3F07CF8000
FFC1FE0000
ENDCHAR
STARTCHAR afii10017
ENCODING 225
SWIDTH 1045 0
DWIDTH 23 0
BBX 28 22 -1 0
BITMAP
00018000
00018000
0001C000
00078000
0007C000
000FC000
000FC000
001FC000
003FC000
003BE000
0073E000
00E3E000
00E3E000
01C3E000
01C1F000
07FFE000
0701F000
0701F000
0E00F800
1C01F000
3C03F800
FF0FFE00
ENDCHAR
STARTCHAR afii10018
ENCODING 226
SWIDTH 1000 0
DWIDTH 22 0
BBX 25 22 0 0
BITMAP
07FFFE00
01F80E00
00F00600
01E00C00
01E00000
01E00000
01E00000
03C00000
03C00000
03FFE000
03E1F000
0780F000
0780F800
07807800
07807C00
0F00F800
0F00F800
0F00F800
0F01F000
1E03E000
3F0FC000
FFFF0000
ENDCHAR
STARTCHAR afii10040
ENCODING 227
SWIDTH 923 0
DWIDTH 24 0
BBX 28 26 -1 -4
BITMAP
03FF3FF0
00FC0FC0
00780780
00F00F00
00F00F00
00F00F00
00F00F00
01E01E00
01E01E00
01E01E00
01E01E00
03C03C00
03C03C00
03C03C00
03C03C00
07807800
07807800
07807800
07807800
0F00F000
1F81F800
7FFFFE00
00001E00
00001C00
00000C00
00000C00
ENDCHAR
STARTCHAR afii10021
ENCODING 228
SWIDTH 962 0
DWIDTH 25 0
BBX 29 26 -1 -4
BITMAP
00FFFFE0
007C0FC0
003807C0
00700F80
00700F80
00700F80
00700F80
00E01F00
00E01F00
00E01F00
00E01F00
01C03E00
01C03E00
01C03E00
01C03E00
03807C00
03807C00
03807C00
03807C00
0E00F800
1C01FC00
7FFFFF00
78000F00
E0000E00
C0000600
C0000600
ENDCHAR
STARTCHAR afii10022
ENCODING 229
SWIDTH 955 0
DWIDTH 21 0
BBX 24 22 0 0
BITMAP
07FFFC
01F81C
00F00C
01E018
01E000
01E000
01E000
03C0C0
03C0C0
03C1C0
03FFC0
078380
078180
078180
078000
0F0000
0F0000
0F0000
0F0030
1E00E0
3F03C0
FFFFC0
ENDCHAR
STARTCHAR afii10038
ENCODING 230
SWIDTH 1182 0
DWIDTH 26 0
BBX 29 22 0 0
BITMAP
0003F000
0001E000
001FFE00
00F3CF00
01E3C780
03C3C3C0
03C3C3C0
0F0783C0
0F0783C0
1F0783E0
1F0783E0
3E0F07C0
3E0F07C0
1E0F0780
1E0F0780
1E1E1E00
1E1E1E00
0F1E3C00
079E7800
03FFC000
003C0000
01FF8000
ENDCHAR
STARTCHAR afii10020
ENCODING 231
SWIDTH 909 0
DWIDTH 20 0
BBX 23 22 0 0
BITMAP
07FFFE
01F80E
00F006
01E00C
01E000
01E000
01E000
03C000
03C000
03C000
03C000
078000
078000
078000
078000
0F0000
0F0000
0F0000
0F0000
1E0000
3F0000
FFE000
ENDCHAR
STARTCHAR afii10039
ENCODING 232
SWIDTH 1091 0
DWIDTH 24 0
BBX 29 22 -1 0
BITMAP
03FE0FE0
00F80380
007C0300
007C0C00
007C1800
003E1800
001F3000
003EC000
001F8000
000F8000
000FC000
000F8000
001FC000
003BE000
0033E000
00C3E000
01C1F000
0181F000
0300F800
0E00F800
3C00FC00
FF83FF00
ENDCHAR
STARTCHAR afii10026
ENCODING 233
SWIDTH 1136 0
DWIDTH 25 0
BBX 28 22 0 0
BITMAP
07FE07F0
01F80FC0
00F00F80
01E03F00
01E03F00
01E07F00
01E06F00
03C1DE00
03C19E00
03C39E00
03C31E00
078E3C00
078C3C00
079C3C00
07983C00
0F707800
0F607800
0FE07800
0FC07800
1F80F000
3F01F800
FF07FE00
ENDCHAR
STARTCHAR afii10027
ENCODING 234
SWIDTH 1000 0
DWIDTH 25 0
BBX 29 25 0 0
BITMAP
00030C00
0003FC00
0001E000
07FE07F0
01F80FC0
00F00F80
01E03F00
01E03F00
01E07F00
01E06F00
03C1DE00
03C19E00
03C39E00
03C31E00
078E3C00
078C3C00
079C3C00
07983C00
0F707800
0F607800
0FE07800
0FC07800
1F80F000
3F01F800
FF07FE00
ENDCHAR
STARTCHAR afii10028
ENCODING 235
SWIDTH 1091 0
DWIDTH 24 0
BBX 27 22 0 0
BITMAP
07FE07C0
01F80FE0
00F01FE0
01E07380
01E0E000
01E1C000
01E38000
03CE0000
03DC0000
03FE0000
03FF0000
07DE0000
078F0000
07878000
07878000
0F078000
0F03C000
0F03C000
0F01E000
1E01E000
3F03F000
FFCFFC00
ENDCHAR
STARTCHAR afii10029
ENCODING 236
SWIDTH 1182 0
DWIDTH 26 0
BBX 29 22 0 0
BITMAP
007FFFE0
003E0FC0
001C07C0
00380F80
00380F80
00380F80
00380F80
00701F00
00701F00
00701F00
00701F00
00E03E00
00E03E00
00E03E00
00E03E00
01C07C00
01C07C00
01C07C00
39C07C00
FB80F800
FF01FC00
7E07FF00
ENDCHAR
STARTCHAR afii10030
ENCODING 237
SWIDTH 1318 0
DWIDTH 29 0
BBX 32 22 0 0
BITMAP
07F8007F
01F8007C
00F800F8
01F801F0
01F801F0
01FC03F0
01BC03F0
03780DE0
037C0DE0
033C0DE0
033E19E0
063C33C0
063C63C0
063E63C0
061E63C0
0C3F8780
0C1F8780
0C1F0780
0C0F0780
181E0F00
3C0C1F80
FF0C7FE0
ENDCHAR
STARTCHAR afii10031
ENCODING 238
SWIDTH 1091 0
DWIDTH 24 0
BBX 27 22 0 0
BITMAP
07FE7FE0
01F81F80
00F00F00
01E01E00
01E01E00
01E01E00
01E01E00
03C03C00
03C03C00
03FFFC00
03FFFC00
07807800
07807800
07807800
07807800
0F00F000
0F00F000
0F00F000
0F00F000
1E01E000
3F03F000
FFCFFC00
ENDCHAR
STARTCHAR afii10032
ENCODING 239
SWIDTH 1000 0
DWIDTH 22 0
BBX 25 22 0 0
BITMAP
001FE000
007CF800
00F03C00
03C03C00
03C03C00
07801E00
07801E00
1F003E00
1F003E00
1F003E00
1F003E00
3E007C00
3E007C00
3E007C00
3E007C00
3C00F000
3C00F000
1E01E000
1E01E000
1E078000
0F9F0000
03FC0000
ENDCHAR
STARTCHAR afii10033
ENCODING 240
SWIDTH 1091 0
DWIDTH 24 0
BBX 27 22 0 0
BITMAP
07FFFFE0
01F81F80
00F00F00
01E01E00
01E01E00
01E01E00
01E01E00
03C03C00
03C03C00
03C03C00
03C03C00
07807800
07807800
07807800
07807800
0F00F000
0F00F000
0F00F000
0F00F000
1E01E000
3F03F000
FFCFFC00
ENDCHAR
STARTCHAR afii10049
ENCODING 241
SWIDTH 1045 0
DWIDTH 23 0
BBX 27 22 -1 0
BITMAP
000FFFE0
003F1F80
003E0F00
00F81E00
00F81E00
00F81E00
00F81E00
01F03C00
00F83C00
00FC3C00
003FFC00
001F7800
001E7800
003C7800
007C7800
00F0F000
01E0F000
03E0F000
03C0F000
0F01E000
1F03F000
FE0FFC00
ENDCHAR
STARTCHAR afii10034
ENCODING 242
SWIDTH 909 0
DWIDTH 20 0
BBX 23 22 0 0
BITMAP
07FFF0
01F8FC
00F07C
01E07C
01E07C
01E07C
01E07C
03C0F8
03C0F8
03C0F8
03C1F0
0787E0
07FF80
078000
078000
0F0000
0F0000
0F0000
0F0000
1E0000
3F0000
FFC000
ENDCHAR
STARTCHAR afii10035
ENCODING 243
SWIDTH 1000 0
DWIDTH 22 0
BBX 25 22 0 0
BITMAP
000FE600
003E3E00
00F80E00
03E00C00
03C00000
07C00000
07800000
1F000000
1F000000
1F000000
1F000000
3E000000
3E000000
3E000000
3E000000
3E000000
3E000000
1F001800
1F803000
1FC0C000
07FF8000
01FE0000
ENDCHAR
STARTCHAR afii10036
ENCODING 244
SWIDTH 1000 0
DWIDTH 22 0
BBX 25 22 0 0
BITMAP
07FFFF80
07078380
06078180
0C0F0300
000F0000
000F0000
000F0000
001E0000
001E0000
001E0000
001E0000
003C0000
003C0000
003C0000
003C0000
00780000
00780000
00780000
00780000
00F00000
01F80000
07FE0000
ENDCHAR
STARTCHAR afii10037
ENCODING 245
SWIDTH 1000 0
DWIDTH 22 0
BBX 26 22 0 0
BITMAP
07F83FC0
03F01F80
00E00E00
01E01C00
00E03800
00F03800
00707000
00F0E000
0071C000
0079C000
003B8000
007F0000
003E0000
003E0000
001C0000
00380000
00700000
00700000
1CE00000
7DC00000
7F800000
3F000000
ENDCHAR
STARTCHAR afii10024
ENCODING 246
SWIDTH 1545 0
DWIDTH 34 0
BBX 39 22 -1 0
BITMAP
01F07FE0F8
03F81F81FC
03FC0F03FC
039C1E0E70
000E1E1C00
00071E3800
00039E7000
0003BDC000
0003FFC000
0007FFE000
000FBDF000
001E79E000
003C78F000
0078787800
0078787800
01E0F07800
03C0F03C00
03C0F03C00
0780F01E00
1E01E01E00
3F03F03F00
FFCFFCFFC0
ENDCHAR
STARTCHAR afii10019
ENCODING 247
SWIDTH 1000 0
DWIDTH 22 0
BBX 25 22 0 0
BITMAP
07FFF000
01F87C00
00F03E00
01E03C00
01E03E00
01E03E00
01E03E00
03C07800
03C0F800
03C1F000
03FFE000
07FFE000
0780F000
0780F800
07807800
0F00F800
0F00F800
0F00F800
0F01F000
1E03E000
3F0FC000
FFFF0000
ENDCHAR
STARTCHAR afii10046
ENCODING 248
SWIDTH 1000 0
DWIDTH 22 0
BBX 25 22 0 0
BITMAP
07FE0000
01F80000
00F00000
01E00000
01E00000
01E00000
01E00000
03C00000
03C00000
03FFE000
03E1F000
0780F000
0780F800
07807800
07807C00
0F00F800
0F00F800
0F00F800
0F01F000
1E03E000
3F0FC000
FFFF0000
ENDCHAR
STARTCHAR afii10045
ENCODING 249
SWIDTH 1364 0
DWIDTH 30 0
BBX 33 22 0 0
BITMAP
07FE01FF80
01F8007E00
00F0003C00
01E0007800
01E0007800
01E0007800
01E0007800
03C000F000
03C000F000
03FFE0F000
03E1F0F000
0780F1E000
0780F9E000
078079E000
07807DE000
0F00FBC000
0F00FBC000
0F00FBC000
0F01F3C000
1E03E78000
3F0FCFC000
FFFF3FF000
ENDCHAR
STARTCHAR afii10025
ENCODING 250
SWIDTH 1000 0
DWIDTH 22 0
BBX 23 22 2 0
BITMAP
067FC0
07E1F0
0700F8
0C00F8
0C00F8
0000F8
0000F8
0301E0
0303E0
0387C0
03FF80
070F80
0603C0
0603E0
0001E0
0003E0
0003E0
6003E0
6003E0
E00F80
FC3F00
CFFC00
ENDCHAR
STARTCHAR afii10042
ENCODING 251
SWIDTH 1545 0
DWIDTH 34 0
BBX 37 22 0 0
BITMAP
07FEFFDFF8
01F83F07E0
00F01E03C0
01E03C0780
01E03C0780
01E03C0780
01E03C0780
03C0780F00
03C0780F00
03C0780F00
03C0780F00
0780F01E00
0780F01E00
0780F01E00
0780F01E00
0F01E03C00
0F01E03C00
0F01E03C00
0F01E03C00
1E03C07800
3F07E0FC00
FFFFFFFF00
ENDCHAR
STARTCHAR afii10047
ENCODING 252
SWIDTH 1000 0
DWIDTH 22 0
BBX 23 22 2 0
BITMAP
067FE0
07E0F8
07007C
0C007C
0C007C
00007C
00007C
0000F8
0300F8
0380F8
03FFF8
0701F0
0601F0
0001F0
0001F0
0003E0
0003E0
6003E0
6003E0
E00F80
FC3F00
CFFC00
ENDCHAR
STARTCHAR afii10043
ENCODING 253
SWIDTH 1308 0
DWIDTH 34 0
BBX 38 26 -1 -4
BITMAP
03FF7FEFFC
00FC1F83F0
00780F01E0
00F01E03C0
00F01E03C0
00F01E03C0
00F01E03C0
01E03C0780
01E03C0780
01E03C0780
01E03C0780
03C0780F00
03C0780F00
03C0780F00
03C0780F00
0780F01E00
0780F01E00
0780F01E00
0780F01E00
0F01E03C00
1F83F07E00
7FFFFFFF80
0000000780
0000000700
0000000300
0000000300
ENDCHAR
STARTCHAR afii10041
ENCODING 254
SWIDTH 1091 0
DWIDTH 24 0
BBX 27 22 0 0
BITMAP
07FE7FE0
01F81F80
00F00F00
01E01E00
01E01E00
01E01E00
01E01E00
03C03C00
03C03C00
03C03C00
03E07C00
03FFF800
00007800
00007800
00007800
0000F000
0000F000
0000F000
0000F000
0001E000
0003F000
000FFC00
ENDCHAR
STARTCHAR afii10044
ENCODING 255
SWIDTH 1136 0
DWIDTH 25 0
BBX 28 22 0 0
BITMAP
07FFC000
07BF0000
071E0000
0C3C0000
0C3C0000
003C0000
003C0000
00780000
00780000
007FFC00
007C3E00
00F01E00
00F01F00
00F00F00
00F00F80
01E01F00
01E01F00
01E01F00
01E03E00
03C07C00
07E1F800
1FFFE000
ENDCHAR
ENDFONT
